<?xml version="1.0" encoding="utf-8"?>
<!-- Generator: Adobe Illustrator 21.1.0, SVG Export Plug-In . SVG Version: 6.00 Build 0)  -->
<svg version="1.1" id="Layer_1" xmlns="http://www.w3.org/2000/svg" xmlns:xlink="http://www.w3.org/1999/xlink" x="0px" y="0px"
	 viewBox="0 0 350.9 217.5" style="enable-background:new 0 0 350.9 217.5;" xml:space="preserve">
<style type="text/css">
	.st0{fill:#1A1A1A;}
	.st1{fill:#0D0D0D;}
	.st2{fill:#808080;}
	.st3{opacity:0.8;}
	.st4{clip-path:url(#SVGID_2_);}
	.st5{opacity:0.2;}
	.st6{clip-path:url(#SVGID_4_);}
	.st7{clip-path:url(#SVGID_6_);}
	.st8{opacity:0.4;fill:#FFFFFF;}
	.st9{opacity:0.2;fill:#FFFFFF;}
	.st10{opacity:0.4;clip-path:url(#SVGID_8_);fill:#666666;}
	.st11{opacity:0.4;fill:#666666;}
</style>
<g>
	<path class="st0" d="M250.6,209.4c-25.9,2.1-53.3,9-79,8c-25.5-1-49.8-11.6-75.5-9.8c-20.5,1.4-40.4,1.1-61.1,1.1
		c-2.2,0-4.4,0-6.5-0.9c-2.5-1.1-4.3-3.3-5.9-5.5c-11.9-16.2-19.7-35.3-22.4-55.2c0-0.2,0-0.4-0.1-0.6c-1.9-14.4,21.4-26,28.9-37.8
		c6.3-10,11.4-19.3,20-27.3c15.3-14.2,32.3-20,41.3-28.7c0,0,28.7,20.7,45.7,49.7S208,194.4,250.6,209.4z"/>
	<path class="st1" d="M348.8,172.7c-0.6,2.5-9.3,32-8.5,31.9c-5.4,0.3-10.8,0-16.2-0.5c-11.8-1.1-23-2.7-34.6-0.3
		c-12.9,2.7-25.7,4.6-38.9,5.6c-42.6-15-97.4-78-114.4-107S90.5,52.8,90.5,52.8c25-6.7,21.3-30,52.1-51.5
		c16.3-1.8,23.5-1.2,35.3-1.2c15.8,0,31.7,4.2,45.4,12.2c0.6,0.3,1.1,0.7,1.7,1c10.7,6.6,19.9,15.3,30.2,22.5
		c12.3,8.7,26.1,21.7,40.1,27.3c14.7,5.9,24.7,13.6,32.7,28c10.5,18.9,17.9,26.4,21.9,47.8C351.7,149.4,351.2,162.3,348.8,172.7z"/>
	<path d="M349.7,138.9c-4-21.4-11.4-28.8-21.9-47.8c-8-14.4-17.9-22.1-32.7-28c-13.9-5.6-27.8-18.7-40.1-27.3
		c-10.3-7.3-19.5-16-30.2-22.5c-0.6-0.3-1.1-0.7-1.7-1c20.1,9.7,41.1,20.4,55.1,28.4s44,23,48,29C330.3,75.7,349.4,118,349.7,138.9z
		"/>
	<path class="st2" d="M142.6,1.3c-30.7,21.5-27.1,44.9-52.1,51.5c-9,8.7-26,14.4-41.3,28.7c-8.6,8-13.7,17.4-20,27.3
		c-7.5,11.8-30.8,23.4-28.9,37.8c0,0.2,0,0.4,0.1,0.6c-2.2-9.9,7-29.5,11-34.5s18.8-20.8,20.8-23.8s28.2-41.2,45.2-54.2
		S142.6,1.3,142.6,1.3z"/>
	<g class="st3">
		<defs>
			<path id="SVGID_1_" class="st3" d="M348.8,172.7c-0.6,2.5-9.3,32-8.5,31.9c-5.4,0.3-10.8,0-16.2-0.5c-11.8-1.1-23-2.7-34.6-0.3
				c-12.9,2.7-25.7,4.6-38.9,5.6c-42.6-15-97.4-78-114.4-107S90.5,52.8,90.5,52.8c25-6.7,21.3-30,52.1-51.5
				c16.3-1.8,23.5-1.2,35.3-1.2c15.8,0,31.7,4.2,45.4,12.2c0.6,0.3,1.1,0.7,1.7,1c10.7,6.6,19.9,15.3,30.2,22.5
				c12.3,8.7,26.1,21.7,40.1,27.3c14.7,5.9,24.7,13.6,32.7,28c10.5,18.9,17.9,26.4,21.9,47.8C351.7,149.4,351.2,162.3,348.8,172.7z"
				/>
		</defs>
		<clipPath id="SVGID_2_">
			<use xlink:href="#SVGID_1_"  style="overflow:visible;"/>
		</clipPath>
		<g class="st4">
			<path d="M236-14.4C181.9,0.8,127.1,13.7,71.9,24.1c-4.4,0.8-2.5,7.6,1.9,6.8C129,20.4,183.8,7.6,237.9-7.7
				C242.2-8.9,240.3-15.6,236-14.4z"/>
			<path d="M132.7,56.9c5.1,0.1,9.4-2.2,14.1-3.7c2.3-0.7,4.8-1.2,7.2-1.4c0.7-0.1,6.5,0.3,6.6,0.1c-1.1,1.7-3.7,3.6-4,5.5
				c10.2,0.4,21.7-2.8,31.3-5.9c-0.1,1.2-0.2,2.4-0.3,3.7c14.7-2.2,29.4-4.4,44.2-5.2c0.1,0.8-0.3,1.6-1.1,1.9
				c6.6-0.3,13.1-0.5,19.7-0.8c-9,1.6-17.7,4.8-25.7,9.3c6.6-0.2,13.2,0.1,19.7,1.1c-8.5,2.7-17.1,5.4-25.3,9
				c-2.1,0.9-4.7,2.9-3.7,5c-10,0.5-20,1.4-29.9,2.5c-9,1-17.7,3.3-26.7,4.4c-9.6,1.2-19.2,2.4-28.8,3.6c1.5,0.1,3,0.7,4.1,1.7
				c-5.2,2.9-11.4,4-17.3,3c3.4,2.6,7.2,4.8,11.2,6.4c0.5,2.8,1,5.6,1.5,8.4c-3.9-1.2-8-1.8-12.1-1.6c1.5,4,5.7,6.6,9.9,7.5
				c4.2,0.9,8.6,0.3,12.9-0.3c7.3-1,13.7-3.1,20.7-5c7.3-2,15-3,22.4-5.2c-2.3-0.9-4.7-1.7-7-2.6c12.8-8,28.3-10.7,43.4-12
				c3.5-0.3,7-0.6,10.3-1.7c2.2-0.8,4.2-1.9,6.3-2.8c8.1-3.4,17.8-3.4,24.9-8.6c-1.2,1.1-0.8,3.1,0.4,4.1c1.2,1,2.8,1.3,4.4,1.2
				c4.5-0.2,8.7-2.3,13.1-3.3c6.2-1.4,12.6-0.3,18.9,0.1c10.7,0.7,21.6-0.6,31.9-3.6c-0.1,3.6-1.5,6.6-2.1,10
				c-0.2,1.2,0.9,8.2,0.5,8.5c-5.6,4-13.3,2-20.1,2.9c-7.6,1-14.2,5.6-20.5,10c-0.8-3.4,0.1-7.2,2.3-9.8c-4.5,1.4-8.9,2.9-13.4,4.3
				c1.3-0.7-0.9-2.3-2.4-2c-7,1.1-13.9,2.6-20.6,4.5c-0.1-1.2-0.3-2.4-0.4-3.6c-9.7,2.8-19.5,5.7-29.2,8.5c0.2-1.2,0.4-2.5,0.5-3.7
				c-4.3,0.3-8.5,1.1-12.7,2.3c-3.7,1.1-7.3,1-11,1.9c-3.9,0.9-7.7,3.2-9.4,6.8c7.3-0.4,14.6-0.7,21.9-0.9c-0.4,1.3-0.2,2.7,0.4,3.9
				l4.9-0.1c-4.7,2-8.9,5.4-11.7,9.6c0.7-1.1,7.4-1.5,8.9-1.8c3.2-0.6,6.4-1.3,9.6-1.9c4.6-0.9,10.5-4,15.2-3.1
				c-1.7,6.3-8.4,9.6-14.4,12.1c-12.8,5.3-25.6,10.5-38.6,15.4c-0.2-1.6,0-3.2,0.6-4.7c-4.2-1.4-8.7-1.9-13.1-1.5
				c0.9-1.5,1.9-2.9,2.8-4.4c-2.6-1.3-5.2-2.6-7.9-3.9c0.3-0.9,0.6-1.9,1-2.8c-8,2.7-16,5.7-23.9,8.9c-1.2,0.5-2.5,1.1-3.2,2.2
				c-1.3,2,0.1,4.6,1.4,6.6c6.3,9.2,13.5,17.8,21.5,25.6c0.3,0.3,10.5-6,11.6-6.6c3.4-2.1,6.7-2.1,10.7-2.5
				c8.1-0.8,16.4-1.6,23.9-4.8c-0.9-1.4-2.3-2.4-3.8-2.8c4.3-1,8.7-2,13-3c1.4-0.3,3-0.8,3.5-2.1c0.6-1.6-0.8-3.3-2.1-4.5
				c10-1.2,20.1-2.4,30.1-3.6c-1.8-2-4.3-3.3-7-3.6c10.8-1,21.6-2,32.4-2.9c-2.1-1.5-4.9-1-7.3-2.3c2.1,1.2,13.6-2.4,18.1-3.2
				c0,0.1,0,0.2,0,0.4c0.4-0.2,0.9-0.3,1.3-0.5c5.4-0.3,10.5,0.3,15.6-1.4c1.6-0.6,3.2-1.1,4.8-1.7c0,0,0,0,0,0.1
				c0.3-0.1,0.5-0.2,0.8-0.3c2.5-0.9,4.9-1.7,7.4-2.6c-2.1,0.7-3,7.7-4.4,9.7c-2.3,3.3-6.7,5.6-9.5,8.6c3.5,0.6,6.9,2,9.8,4.2
				c-2.7-0.2-5.5,0.8-7.5,2.7c3.3,1.4,6.6,2.5,10,3.4c-5.5,2.8-11.1,5.3-16.9,7.4c0.9,1.6,3.2,1.6,5,1.5c9-0.8,18.1-1.5,27.1-2.3
				c-2.7,2.7-5.6,6.4-4,9.9c-8.9,2.6-18,4.4-27.2,5.3c-4.4,0.4-9.2,0-13.5,1c-1.7,0.4-3.4,1.2-5.1,1.6c-1.1,0.2-5.3,0.3-5.9,1
				c1.9-2.1,3.4-4.5,4.4-7.2c-0.8-0.1-1.6-0.1-2.3-0.2c0.4-1.4,0.8-2.7,1.3-4.1c-1.1,0.1-2.2,0.2-3.3,0.4c0.2-1.1,0.4-2.3,0.7-3.4
				c-6.4,0.6-12.1,3.4-17.9,5.7c-6.2,2.4-12.3,4.7-18.6,6.8c-12,4-24.3,6.7-36.8,8.3c-3.2,0.9-6.3,1.9-9.4,2.9
				c3.3,2.2,6.5,4.7,9.5,7.4c2.2,0.6,4.5,1.3,6.7,2c7.8,2.3,12.1,7.7,19.1,10.7c0.6,0.3,1.3,0.3,1.9,0.2c0.8,2.7,1.7,5.3,5.5,4.6
				c15.1-2.8,30.5-4.4,45.7-7.5c15.7-3.2,31.5-6.4,47.6-5.9c-0.4-2,2.1-3.2,4.2-3.5c6.6-1.2,13.3-2.5,19.9-3.7
				c0,0-1.7-17.7-1.8-19.3c-1.2-15.7-1.7-31.4-4.2-47c-1-6.2-2.1-12.4-3.2-18.6c-1.3-7-2.7-14-4.2-20.9c-1.4-6.7-3-13.4-6.4-19.4
				c-3.4-5.9-8.3-10.7-13.5-15.1c-7.8-6.6-16.2-12.6-24.6-18.4c-9.8-6.8-19.7-13.5-30.8-17.8c-5.1-2-10.4-3.4-15.8-4.4
				c-5.5-0.9-11.4-0.2-16.8-1.1c-11-1.9-22.2-6-33.1-8.8c-20.8-5.3-41.5,0.4-62.3,3.6c-4.3,0.7-8.7,1.4-12.6,3.3
				c-3.7,1.8-7.6,4.4-10,7.8c-0.7,1-4.7,12.1-3.8,11.9c1.9-0.4,3.8-0.8,5.7-1.3c0.5-0.1,1-0.2,1.5,0c0.8,0.3,1.1,1.3,1.5,2
				c0.9,1.5,2.8,2.3,4.5,2.3s3.5-0.5,5.2-1.1c0.1-0.4,0.2-0.8,0.4-1.2c8,0.2,15.9,1.5,23.4,4c-3.2,2.4-7.1,4.1-11,4.7
				c6.2,0.6,12.3,1.4,18.4,2.5c-8.4,1.4-16.7,2.8-25.1,4.1c-2,0.3-4,0.6-6,0.3c-5.9-1-9.9-2-15.9,0.2c-5.3,2-10.2,4.7-15.5,6.5
				c-2.7,0.9-5.4,1.7-8.1,2.4c-1.3,0.3-5.8,2.1-7,1.5c7.9,4.1,15.6,5.9,24.4,3.5c3-0.8,5.9-2.1,9-2.3
				C122.7,54.2,127.6,56.8,132.7,56.9z"/>
		</g>
	</g>
	<g class="st5">
		<defs>
			<path id="SVGID_3_" class="st5" d="M250.6,209.4c-25.9,2.1-53.3,9-79,8c-25.5-1-49.8-11.6-75.5-9.8c-20.5,1.4-40.4,1.1-61.1,1.1
				c-2.2,0-4.4,0-6.5-0.9c-2.5-1.1-4.3-3.3-5.9-5.5c-11.9-16.2-19.7-35.3-22.4-55.2c0-0.2,0-0.4-0.1-0.6
				c-1.9-14.4,21.4-26,28.9-37.8c6.3-10,11.4-19.3,20-27.3c15.3-14.2,32.3-20,41.3-28.7c0,0,28.7,20.7,45.7,49.7
				S208,194.4,250.6,209.4z"/>
		</defs>
		<clipPath id="SVGID_4_">
			<use xlink:href="#SVGID_3_"  style="overflow:visible;"/>
		</clipPath>
		<g class="st6">
			<path d="M185.6,162.6c5.9-1.4,5.3-3.4,10.6,0.1c4.1,2.7,7.6,6.4,10.7,9.9c1,1.2,4.3,4.6,3.7,6.4c-0.6,1.8-1,4-2.5,4.4
				c-17.6,4.2-39.2,6.4-57.5,6.4c-15.1,1-30.3,1.5-45.4,1.7c-6.7,0.1-13.8,0.8-20.4-0.5c-4.9-1-10.7-4.5-15.5-4.6
				c1.3,0,1.8-2,0.9-2.9c-0.8-1-2.3-1.2-3.6-1.3c-2.9-0.3-11.3-3.2-13.9-2.2c8.2-3.2,16.6-5.9,25.1-8.3c-3.2,0.4-6.5-0.2-9.4-1.5
				c5.3-3.1,11.3-4.8,17.3-5.7c3.1-0.4,6.2-0.7,9.2-0.8c1.1-0.1,2.5,0.1,3.6-0.2c0.8-0.2,2.2-1.9,2.5-1.9c-1.1,0.1-2.2,0-3.2-0.2
				c4.3-0.9,8.6-1.7,12.9-2.6c0.8-0.2,1.7-0.4,1.9-1.2c-0.5,0-0.9-0.1-1.3-0.3c3.7-1.1,7-2.9,10.8-3.3c-0.4-0.5-1.1-0.7-1.7-0.9
				c-1.9-0.6-3.8-1.1-5.7-1.6c2.6-0.5,4.4-1.1,6.4-2.9c-5,0-9.7-0.9-14.7-0.9c0-1.3,0-2.5,0-3.8c-4.8-0.6-9.4-2.8-12.7-6.3
				c0.6-0.1,1.3-0.3,1.9-0.4c-1.1,0.2-2.2-0.7-2.6-1.7c-0.4-1.2-0.2-2.9-0.3-4.1c-7.8,3-16.5-4.7-22.6-8.6c0.6-1.4,1.4-2.8,2.4-4
				c-1.2-0.4-2.5-0.9-3.7-1.3c2.4-0.5,4.7-0.9,7.1-1.4c-1.7-1.6-3.8-2.6-6-2.9c1.4-1.8,2.3-4,2.7-6.2c-4.9-1.4-9.9-2.6-14.9-3.7
				c2.8-1.1,5.8-1.9,8.8-2.3c-1.6-1.3-3.3-2.7-4.9-4c-0.6-1.5,1.1-2.8,2.5-3.5c8.4-4.3,17.1-7.9,26.1-10.8c-3.3,0.4-6.9-0.7-9.3-3.1
				c5.8-4.3,11.7-8.6,17.5-12.8c-3.8-0.8-7.6-1.7-11.3-2.8c3.1-2.9,6.1-5.7,9.2-8.6c-1.7-0.8-3.2-1.8-4.6-3.1
				c-9.2,3.5-18.5,7-27.7,10.5c-2.4,0.9-4.9,1.9-6.9,3.5c-1.6,1.3-2.8,2.9-4,4.5c-4.9,6.6-9.9,13.2-14.7,20
				c-4.2,5.9-9.7,10.2-15.2,14.9c-8.1,6.9-15.3,14.7-21.5,23.3c4.1,0.9,8.7,1.4,12.8,0.9c1.2-0.2,14.6-1.5,14.6-1.2
				c-0.4,2.4-1.4,4.8-2.8,6.8c7.6-0.7,15.3-1,23-1c-7.9,2.2-15.4,5.6-22.2,10c0.9,0.7,2,1.2,3.1,1.4c-2.9,1.6-5.8,3.3-8.6,4.9
				c-0.8,0.5-1.7,1-2,1.9c-0.3,0.9,0.6,2.1,1.4,1.7c-3.2,1.3-6.5,2.1-9.9,2.6c8.6,0.8,17.3,0.5,25.8-0.8c6.6-1,13.3-2.6,19.8-1.2
				c-11,3.8-22,7.7-33.1,11.5c1.5,0.4,3,0.8,4.6,1.2c-4.4,1.5-8.7,3-13.1,4.4c1.4,0,2.7,0.6,3.7,1.5c-9.1,0.7-18.1,1.2-27.2,1.5
				c4.1,7.7,9.3,14.9,15.3,21.3c2,2.2,4.2,4.4,5.1,7.2c0.2,0.7,0.4,1.5,0.8,2.1c0.5,0.7,1.3,1.2,2,1.7c6.8,4,14.8,8.7,22.9,8.6
				c9.1-0.1,18.1-0.5,27.2-0.9c17.9-0.8,35.8-1.8,53.7-2.1c8-0.1,15.8,0.6,23.7,0c3.8-0.3,7.9-0.7,10.8-3.1c1.7-1.4,2.9-3.5,3.3-5.8
				c15.9-1.1,31.7-3.5,47.3-6.9c-3.6,2.1-6.4,5.4-7.8,9.3c2.4,1.6,5.5,1.4,8.4,1.5c2.9,0.2,6.2,1.3,7.1,4c4.4-0.3,8.7,1.2,13,1.9
				c6.5,1,31.2-1,27.7-11.8c-0.8-2.5-2.6-5.2-3.6-6.4c-2.5-3.1-5.8-5.5-9-7.8c-10.4-7.3-20.4-15.1-30.8-22.6
				c-11.7-8.4-22.4-18.3-32.3-28.7c-2.9-3.1-6.3-6.4-10.6-6.5c-1.4,0-2.8,0.4-4.2,0.7c-9.5,2.5-19.2,4-28.9,4.6
				c2.9,2.1,6.2,3.6,9.8,4.2c-0.7,0.5-1.4,1.1-2.1,1.6c6.6,0.9,13.2,1.8,19.9,2.7c-1.8,0.7-3.7,1.4-5.5,2.1
				c3.8,1.4,7.7,2.9,11.5,4.3c-6,2.6-12.2,4.8-18.6,6.5c5.1-0.4,10.1-0.8,15.2-1.2c2.4-0.2,5-0.1,7.3-0.6c1.7-0.3,2.9-1.3,4.6-0.6
				c-0.4,0.7-1,1.3-1.8,1.6c1.3,0.5,2.7,1.1,3.7,2s2.2,2.6,0.1,5.1C180.7,163.1,184.4,162.8,185.6,162.6z"/>
		</g>
	</g>
	<g>
		<defs>
			<path id="SVGID_5_" d="M348.8,172.7c-0.6,2.5-9.3,32-8.5,31.9c-5.4,0.3-10.8,0-16.2-0.5c-11.8-1.1-23-2.7-34.6-0.3
				c-12.9,2.7-25.7,4.6-38.9,5.6c-42.6-15-97.4-78-114.4-107S90.5,52.8,90.5,52.8c25-6.7,21.3-30,52.1-51.5
				c16.3-1.8,23.5-1.2,35.3-1.2c15.8,0,31.7,4.2,45.4,12.2c0.6,0.3,1.1,0.7,1.7,1c10.7,6.6,19.9,15.3,30.2,22.5
				c12.3,8.7,26.1,21.7,40.1,27.3c14.7,5.9,24.7,13.6,32.7,28c10.5,18.9,17.9,26.4,21.9,47.8C351.7,149.4,351.2,162.3,348.8,172.7z"
				/>
		</defs>
		<clipPath id="SVGID_6_">
			<use xlink:href="#SVGID_5_"  style="overflow:visible;"/>
		</clipPath>
		<g class="st7">
			<g>
				<path class="st8" d="M287.3,35.5c-0.4-9.2-11.4-13.2-18.8-15c-4.2-1-9-1.2-13.4-2.1c-1.5-0.3-3-0.6-4.4-1.1
					c-5.1-1.8-10.8-5.8-15.6-8.5c-9.8-5.6-20.2-9-31.2-11.2c-13.4-2.6-27.1-4.2-40.8-4.1c-15,2.9-29.3,9.5-41.7,18.3
					c1.3,12.7,23.1,12.7,32.1,11.1c4.8-0.8,9.5-2.2,13.9-4.2c-3.6,3.7-8.6,5.9-13.7,6.9c-12.2,2.5-25.2,1.5-36.4-3.7
					c0.9,0.4-6,3.3-5.3,4.1c1.2,1.2,8.5,4.2,10.1,4.7c3.2,1.1,7.6,2.3,10.9,2.9c7.2,1.3,13.4,2.3,20.6,1.9c2.8-0.1,5.3-0.2,8.1-0.8
					c1.8-0.4,11.2-2.9,12.2-4.4c-1.6,2.3-5.6,5.6-8.9,6.8c1.5-0.4,3-0.6,4.6-0.6c-4.3,2.9-10.3,5.8-15.6,6.2
					c4.6,0.5,11.9,1.1,16.5,0.8c-2.3,1.3-4.6,2.8-7.1,3.5c3.3-0.4,6.4-1.3,9.7-1.6c-6,3.4-13.1,4.1-20.1,4.2
					c7.5,1.6,11.3,1.1,16.4,0.2c-1,0.6-2,1.3-3,1.9c0.6,0,1.2,0.1,1.8,0.1c-0.4,0.2-0.8,0.5-1.2,0.7c2.1-0.2,4.2-0.3,6.2-0.5
					c-8.3,3.9-17.4,3.7-26.6,4c-9.1,0.3-27.9-3.8-27.9-3.8s5.6,3.1,8.9,4c3.3,1,9.5,2.8,12.9,3.3c7,1,12.6,1.8,19.6,0.8
					c14.7-2.1,32.1-9.2,43.9-17.7c-1.4,3-4.9,9.1-14.2,15.2c-3.1,2-6,4.1-9.4,5.5c-1.7,0.7-3.5,1.3-5.2,2c-1.3,0.5-3.2,0.5-4.3,1.3
					c1.5-0.1,3-0.2,4.5-0.3c-0.8,0.5-1.7,1-2.5,1.5c1.3-0.1,2.5-0.3,3.8-0.4c-3.8,1.9-7.9,3.1-12.1,3.6c3.3,1.2,7.7-0.1,11.1-0.5
					c4.6-0.6,14.2-3,18.8-4.1c-2.2,1.3-6.9,4.6-9.5,5.8c7.4,0.9,12.7-0.4,17.1-0.6c-0.1,0.9-4.5,4.2-4.6,5.1
					c4.4-1.4,11.8-3.5,16.2-4.9c-6.1,9.2-26.3,15.8-39.6,17.6c-18,2.5-33.9,4-51.9,2.1c9.9,5.1,20.8,8.2,31.8,9.2
					c-0.4,0.6-0.8,1.2-1.2,1.8c5.7,1.2,11.5,2,17.4,2.2c-1.1,1.5-5,3.9-6.9,4.1c9.1,0.6,14-0.3,19.9-1.6c7.2-1.6,14.3-3.3,21.4-5.2
					c7.2-1.9,23.3-6.8,44.3-16.7c-12.9,10.5-26.9,17.7-31.5,19.6c-13.6,5.4-27.8,9.1-42.2,11.2c-6.2,0.9-14,2.7-20.2,1.7
					c-4.8-0.8-14.5-5.5-17.5-9.4c5.7,7.2,11.3,14.4,17,21.6c3,3.8,8.5,9.1,9.2,14c-0.6-3.9,4-5.6,7.3-7.7c-1.2-0.9-2.7-1.5-4.1-1.9
					c23.3-8.9,47.2-10,68.7-23.7c11.8-7.5,22.8-17.3,32.1-27.6C279.7,69.7,288.2,53.9,287.3,35.5z"/>
			</g>
			<path class="st9" d="M312.4,190.2c-6.2,1.6-12.5,3.1-19,3.4c-12.6,0.7-25.3-0.8-38,0.2c24.6-6.9,49.2-13.8,73.8-20.7
				c6-1.7,12.3-3.6,16.5-8.3c-4.6,2.1-9.4,3.8-14.3,4.9c11-8.3,18.9-16.5,20-31.1c-0.4,10.3,2.5,20.2,2.6,30.4
				c0,8.1-3.7,14.8-6.8,22c-1.8,4.2-6,13.2-6.1,17.6c0-6-4-8.3-7.7-12.1c1-1.1,2-2.2,3-3.4c-7.3,0.3-14.5,3.8-21.6,2.2
				c5.5-4,11.4-7.4,17.5-10.2C325.6,186.5,319,188.5,312.4,190.2z"/>
		</g>
	</g>
	<g>
		<defs>
			<path id="SVGID_7_" d="M250.6,209.4c-25.9,2.1-53.3,9-79,8c-25.5-1-49.8-11.6-75.5-9.8c-20.5,1.4-40.4,1.1-61.1,1.1
				c-2.2,0-4.4,0-6.5-0.9c-2.5-1.1-4.3-3.3-5.9-5.5c-11.9-16.2-19.7-35.3-22.4-55.2c0-0.2,0-0.4-0.1-0.6
				c-1.9-14.4,21.4-26,28.9-37.8c6.3-10,11.4-19.3,20-27.3c15.3-14.2,32.3-20,41.3-28.7c0,0,28.7,20.7,45.7,49.7
				S208,194.4,250.6,209.4z"/>
		</defs>
		<clipPath id="SVGID_8_">
			<use xlink:href="#SVGID_7_"  style="overflow:visible;"/>
		</clipPath>
		<path class="st10" d="M102.6,83.7c2.4-1.1,6.3-5.1,6.3-5.1s-2.4,0.4-4.1,0.6c-6.7,0.7-13.4,1.4-20.1,2c8.5-0.9,15.5-4.1,23.4-6.7
			c-2,0-3.9,0-5.9,0c3.6-2.1,7.1-4.1,10.7-6.2c-2.7-0.4-6.9,0.5-9.5-0.1c6.6-8.1,2.1-4.1-7.3-3.6c-1.3,0.1-2.5,0.6-3.7,0.6
			c2-0.1,3.3-1,4.8-2.1c1.3-1,2.9-1.7,3.6-3.3c0.8-1.5,0.2-3.9-1.7-4.1c-0.9-0.1-1.8,0.3-2.7,0.5c-2,0.7-4,1.1-6,1.3
			c0.8-0.6,1.7-0.9,2.4-1.6c1.2-1,1.5-3,0.8-4.3c-1.6-3.1-6.3-1.1-8.4,0.2c-2.2,1.4-4.2,3-6.3,4.4C69.3,62.3,60,68.7,51.3,75.9
			c-7.6,6.2-13.3,13.4-20,20.5c-7.7,8.1-19.9,10.1-28.2,17.4c-4,3.5-6.7,8.3-8.7,13.2c-4.5,11-6,23.4-3,34.9
			c3,11.5,10.9,21.9,21.6,27c-5.2-13.8-8.3-28.4-9.2-43.2c-0.1-1.1-0.1-2.2,0.4-3.2c1.2-2.3,4.5-2.1,7-1.7c-0.6-1.1-1.2-2.2-1.8-3.3
			c3.3,0.3,6.6,0.6,9.9,0.9c-0.4-0.9-1.1-1.6-1.9-2c1.4-0.1,2.8-0.7,3.8-1.6c-1.4-0.9-6.9-9.4-6.8-9.4c2.1,0,4.3-0.4,6.3-1
			c-0.4-0.5-0.9-1-1.3-1.5c7.3,8,33.4,1.7,42.1-0.6c-3.3-1.7-6.7-3.4-10-5.1c2.2-1.1,4.3-2.1,6.5-3.2c-2.4-1.1-4.8-2.1-7.1-3.2
			c1.9-0.2,3.7-0.8,5.2-1.8c-4.8-0.9-9.5-2.4-14-4.5c7.8-1.2,15.8-2.4,22.9-5.8c-5.5-0.4-11-1.4-16.3-2.7c6.3,0.4,11.3,0.2,17.6,0
			c3.4-0.1,11.4-0.8,19.3-2.5c6.1-1.3,30.4-9.7,30.4-9.7C111.5,84.1,107,84.1,102.6,83.7z"/>
	</g>
	<path class="st11" d="M57.4,197.3c-0.8,0-1.6,0-2.4,0c4.4,1.5,9.1,2.5,13.8,2.8c4.9,0.4,5.3,1.2,9.4,3.1c0.8,0.4,1.7,0.4,2.5,0.5
		c12,0.7,23.8-4.9,35.6-3.3c3.7,0.5,13.5,1.4,17.2,1.1c6.1-0.4-5.7-2.6-5.4-5.1c0.8-7.1,25-12.6,25-12.6s-23.4,0.8-32.8,3.1
		c-17.1,4.1-30.7,8.1-48.3,9.3C67.1,196.5,62.3,197.4,57.4,197.3z"/>
</g>
</svg>
