<?xml version="1.0" encoding="utf-8"?>
<!-- Generator: Adobe Illustrator 21.1.0, SVG Export Plug-In . SVG Version: 6.00 Build 0)  -->
<svg version="1.1" id="Layer_1" xmlns="http://www.w3.org/2000/svg" xmlns:xlink="http://www.w3.org/1999/xlink" x="0px" y="0px"
	 viewBox="0 0 777.4 300.3" style="enable-background:new 0 0 777.4 300.3;" xml:space="preserve">
<style type="text/css">
	.st0{fill:url(#SVGID_1_);}
	.st1{filter:url(#Adobe_OpacityMaskFilter);}
	.st2{mask:url(#SVGID_2_);fill:#C69C6D;}
	.st3{filter:url(#Adobe_OpacityMaskFilter_1_);}
	.st4{mask:url(#SVGID_3_);fill:#C69C6D;}
	.st5{fill:url(#SVGID_4_);}
	.st6{filter:url(#Adobe_OpacityMaskFilter_2_);}
	.st7{mask:url(#SVGID_5_);fill:url(#SVGID_6_);}
	.st8{fill:#785640;}
	.st9{fill:#805C21;}
	.st10{fill:#A3714B;}
	.st11{fill:#724414;}
	.st12{fill:#A36B32;}
	.st13{fill:#AA854C;}
	.st14{fill:#85683B;}
	.st15{fill:#997844;}
	.st16{fill:#654510;}
	.st17{opacity:0.2;fill:#99999A;}
	.st18{opacity:0.2;fill:url(#SVGID_7_);}
	.st19{fill:#F4FFFF;}
	.st20{fill:#D5EFE8;}
	.st21{opacity:0.2;fill:#1E3832;}
	.st22{fill:url(#SVGID_8_);}
	.st23{fill:url(#SVGID_9_);}
	.st24{fill:url(#SVGID_10_);}
	.st25{fill:url(#SVGID_11_);}
	.st26{fill:url(#SVGID_12_);}
</style>
<g>
	<linearGradient id="SVGID_1_" gradientUnits="userSpaceOnUse" x1="703.6196" y1="206.2285" x2="703.6196" y2="92.1837">
		<stop  offset="0" style="stop-color:#947045"/>
		<stop  offset="5.793443e-02" style="stop-color:#9D784C"/>
		<stop  offset="0.2362" style="stop-color:#B48C5E"/>
		<stop  offset="0.4053" style="stop-color:#C19869"/>
		<stop  offset="0.5544" style="stop-color:#C69C6D"/>
		<stop  offset="0.7274" style="stop-color:#C2986A"/>
		<stop  offset="0.8941" style="stop-color:#B78E60"/>
		<stop  offset="1" style="stop-color:#AB8356"/>
	</linearGradient>
	<path class="st0" d="M777.1,146.5c-1-35.6-7.8-47.2-11.1-50.4c-2.2-2.2-6.6-2.3-9.4-2.6c-3.9-0.4-7.7-0.5-11.7-0.7
		c2.2,0,2,9.9,2,11.1c0,0.5,0,1-0.2,1.4c-0.2,0.4-0.7,0.7-1.2,0.5c-0.3-0.1-0.4-0.4-0.6-0.7c-1.1-2.2-2.2-8.1-4.5-9.2
		c-2.3-1.2-1.7,0.5-3.1,1.4c-1.9,1.4-1.7,1.1-3.8,0.4c-5-1.8-9.9-2.7-15.2-3.5c-3.3-0.5-8.2-2.2-10.5,1.2c-2.3,3.3,1.3,6.9-0.8,10.2
		c-1.9,3-3,0.1-3.5-2.5c-0.3-1.6-0.4-3.7-1.3-5c-0.6-1-2-1.6-3-1.1c-0.9,0.4-1.2,1.5-1.4,2.4c-0.1,0.6-0.2,1.1-0.5,1.6
		c-1,1.1-2.8,0.2-3.9-0.7c-2.6-2.1-5.1-4.4-7.8-6.4c-2.9-2.1-4.5-1.9-8.2-1.9c-6.9,0-13.8,0.4-20.7,0.4c-8,0.1-16.2-0.9-24.1,0.6
		c-0.6,17.7-2.1,96.6-2.7,113c0,0.1,29.6,1.2,32.3,1.2c5.4,0.1,10.7,0.3,16.1-0.2c3.6-0.3,8.2-0.2,11.4-1.9c2.2-1.2,2.8-4.8,5.1-5.4
		c4.8-1.5,2.2,9.5,6.8,6.3c0.7-0.5,1.1-1.4,1.3-2.3c0.4-1.4,1.4-10.8,4-10.2c0.4,0.1,0.7,0.4,0.9,0.8c1.7,2.8-1,6,1.1,8.7
		c3.2,4.1,10.2,3.1,14.5,2c2.7-0.7,5.6-1.8,7.8-3.5c2.2-1.7,3.4-4.7,5.2-6.9c0.4-0.5,0.9-1,1.5-1c1,0,1.4,1.2,1.6,2.2
		c0.3,1.9-0.4,7.2,2,7.7c4,0.8,4.3-7,4.6-9.3c0.2-2.5,0.8-5.3,2.5-7.2c0.2,1.5-1.2,16.8-1.8,18.6c3.7,0,7.1,0.4,10.9,0.3
		c3.4-0.1,7.4-2.2,10.1-4.4c5.1-4.3,7-11.2,8.1-17.5C777.8,171.7,777.5,158.9,777.1,146.5z"/>
	<defs>
		<filter id="Adobe_OpacityMaskFilter" filterUnits="userSpaceOnUse" x="633.8" y="92.3" width="34.2" height="115.2">
			
				<feColorMatrix  type="matrix" values="-1 0 0 0 1  0 -1 0 0 1  0 0 -1 0 1  0 0 0 1 0" color-interpolation-filters="sRGB" result="source"/>
		</filter>
	</defs>
	<mask maskUnits="userSpaceOnUse" x="633.8" y="92.3" width="34.2" height="115.2" id="SVGID_2_">
		<g class="st1">
			
				<image style="overflow:visible;" width="143" height="480" xlink:href="7BE8727D658A3AB9.jpg"  transform="matrix(0.24 0 0 0.24 633.84 92.3472)">
			</image>
		</g>
	</mask>
	<rect x="633.8" y="92.3" class="st2" width="34.2" height="115.2"/>
	<defs>
		<filter id="Adobe_OpacityMaskFilter_1_" filterUnits="userSpaceOnUse" x="748.9" y="93" width="28.4" height="113.1">
			
				<feColorMatrix  type="matrix" values="-1 0 0 0 1  0 -1 0 0 1  0 0 -1 0 1  0 0 0 1 0" color-interpolation-filters="sRGB" result="source"/>
		</filter>
	</defs>
	<mask maskUnits="userSpaceOnUse" x="748.9" y="93" width="28.4" height="113.1" id="SVGID_3_">
		<g class="st3">
			
				<image style="overflow:visible;" width="120" height="471" xlink:href="7BE8727D658A3ABB.jpg"  transform="matrix(0.24 0 0 0.24 748.8 92.8272)">
			</image>
		</g>
	</mask>
	<rect x="748.9" y="93" class="st4" width="28.4" height="113.1"/>
	<linearGradient id="SVGID_4_" gradientUnits="userSpaceOnUse" x1="631.9233" y1="207.6063" x2="631.9233" y2="91.6199">
		<stop  offset="0" style="stop-color:#947045"/>
		<stop  offset="5.793443e-02" style="stop-color:#9D784C"/>
		<stop  offset="0.2362" style="stop-color:#B48C5E"/>
		<stop  offset="0.4053" style="stop-color:#C19869"/>
		<stop  offset="0.5544" style="stop-color:#C69C6D"/>
		<stop  offset="0.7274" style="stop-color:#C2986A"/>
		<stop  offset="0.8941" style="stop-color:#B78E60"/>
		<stop  offset="1" style="stop-color:#AB8356"/>
	</linearGradient>
	<path class="st5" d="M632.5,205.1c7.9-6.9,7.3-47,7.3-52.6c0-11.8,0.1-23.7-0.3-35.5c-0.1-3.9-2.2-24-6.2-24s-5.6,7.2-6.3,11
		c-0.7,4-1.2,8-1.5,12c-1,11.2-1.3,22.4-1.3,33.6c0,11.8-0.2,23.7,0.1,35.5c0.1,4.6-1.2,19.5,5,20.8
		C630.5,206.3,631.6,206,632.5,205.1z"/>
	<defs>
		<filter id="Adobe_OpacityMaskFilter_2_" filterUnits="userSpaceOnUse" x="624.1" y="93" width="15.7" height="111.6">
			
				<feColorMatrix  type="matrix" values="-1 0 0 0 1  0 -1 0 0 1  0 0 -1 0 1  0 0 0 1 0" color-interpolation-filters="sRGB" result="source"/>
		</filter>
	</defs>
	<mask maskUnits="userSpaceOnUse" x="624.1" y="93" width="15.7" height="111.6" id="SVGID_5_">
		<g class="st6">
			
				<image style="overflow:visible;" width="67" height="465" xlink:href="7BE8727D658A3ABE.jpg"  transform="matrix(0.24 0 0 0.24 624 93.0672)">
			</image>
		</g>
	</mask>
	<linearGradient id="SVGID_6_" gradientUnits="userSpaceOnUse" x1="624.0798" y1="148.8548" x2="639.7668" y2="148.8548">
		<stop  offset="5.698529e-02" style="stop-color:#6A4F21;stop-opacity:0.5"/>
		<stop  offset="0.4906" style="stop-color:#755520;stop-opacity:0.6484"/>
		<stop  offset="0.9337" style="stop-color:#7A5820;stop-opacity:0.8"/>
	</linearGradient>
	<rect x="624.1" y="93" class="st7" width="15.7" height="111.6"/>
	<path class="st8" d="M672.1,104.1c0.1,0,0.2,0,0.4,0c0.8,0,1.7,0,2.4,0.4c0.5,0.3,0.9,0.8,1.2,1.4c0.5,0.9,0.7,1.9,1.1,2.9
		c0.3,0.7,0.9,1.3,1,2.1c0,0.4-0.1,0.8-0.5,0.9c-0.2,0.1-0.5,0-0.7-0.1c-0.5-0.2-0.9-0.7-1.2-1.1c-0.6-0.9-1.1-1.9-1.6-2.8
		c-0.3-0.6-0.7-1.2-1.1-1.7c-0.3-0.4-2-1.5-0.9-2C672,104.2,672.1,104.1,672.1,104.1z"/>
	<path class="st9" d="M711.8,129.3c-1,1.1-2.7-1.8-3.2-2.2c-0.8-0.8-0.4-2.6,1-2c0.5,0.2,0.9,0.7,1.2,1.2c0.4,0.3,0.6,0.7,0.7,1.2
		c0,0,0,0,0,0.1c0.2,0.2,0.4,0.3,0.5,0.5C712.2,128.5,712.1,129,711.8,129.3z"/>
	<path class="st9" d="M692.8,121.3c0.1,0.5,0.1,1.1,0,1.5c-0.5,1.4-3.4,3.1-4.1,0.9c-0.2-0.5-0.2-0.9,0.3-1.2c0.9-0.6-0.2-2.3,0.8-3
		C691,118.6,692.5,120.2,692.8,121.3z"/>
	<path class="st9" d="M696.9,140.1c-0.1,0.1-0.2,0.3-0.3,0.4c-0.5,0.6-1.5,0.5-1.9,0c-0.6-0.6-0.5-1.4,0-1.9
		c0.1-0.1,0.2-0.3,0.3-0.4c0.5-0.6,1.5-0.5,1.9,0C697.4,138.7,697.3,139.5,696.9,140.1z"/>
	<path class="st9" d="M710.9,148.2c-0.6,0.2-1.3-0.2-1.4-0.8c-0.1-0.3-0.1-0.4-0.4-0.6c-0.5-0.4-0.4-1.2,0-1.6
		c0.5-0.5,1.2-0.4,1.6,0c0.5,0.4,0.8,1,1,1.7C711.9,147.4,711.6,148,710.9,148.2z"/>
	<path class="st10" d="M723.3,169.2v-0.3c0-1.6,2.5-1.6,2.5,0v0.3C725.8,170.9,723.3,170.9,723.3,169.2z"/>
	<path class="st9" d="M731.4,156.2c-0.8,0.8-1.4,1.7-2,2.6c-0.1,0.2-0.2,0.3-0.4,0.4c-0.3,0.1-0.5-0.1-0.7-0.3
		c-0.1-0.2-0.1-0.5-0.1-0.8c0-1.9,0-2.4,1.3-3.8C730.7,153.1,732.6,155,731.4,156.2z"/>
	<path class="st9" d="M714.5,98.7c-0.3,0.7-1.3,0.8-1.8,0.5c-0.3-0.2-0.6-0.5-0.6-0.9c0-0.2,0-0.3,0-0.4c0-0.6-0.1-1.2,0.4-1.6
		c0.5-0.4,1.3,0,1.8,0.2C715,96.9,714.7,98.1,714.5,98.7z"/>
	<path class="st10" d="M734.5,120.5c0.3,0.3,0.7,0.7,0.5,1.1c-0.1,0.2-0.2,0.3-0.4,0.3c-1.8,0.8-2.7-1.3-2.8-2.8
		c0-0.7,0.1-1.6,0.7-2.1c1.4-1.1,1.6,0.8,1.2,1.7c-0.1,0.2-0.2,0.4-0.1,0.7C733.6,119.9,734.1,120.1,734.5,120.5
		C734.5,120.4,734.5,120.4,734.5,120.5z"/>
	<path class="st9" d="M737.2,127.4v-0.3c0-1.8,2.8-1.8,2.8,0v0.3C740,129.2,737.2,129.2,737.2,127.4z"/>
	<path class="st11" d="M680.9,160.6c-0.4,0.2-1.5,1.3-2.4,1.7c-0.9,0.5-1.7,0.4-1.4-1.5c0.2-1.8,1.9-2.3,3.2-2.1
		C681.6,158.9,682.4,159.8,680.9,160.6z"/>
	<path class="st9" d="M678.5,142.3c-1.2,0.6-2.2-0.5-2.1-1.5c-0.5-0.4-1.1-0.7-1.6-0.8c-0.7-0.3-1.2-1-1-1.7c0.2-0.7,1-1.3,1.7-1
		c1.1,0.4,2.2,1,3.1,1.8C679.6,140,679.8,141.6,678.5,142.3z"/>
	<path class="st10" d="M747.8,133.8c-0.5,0.6-1.1,1.1-1.7,1.5c-0.5,0.4-1.3,0.1-1.6-0.4c-0.3-0.5-0.1-1,0.2-1.4
		c0.5-0.7,0.8-0.4,1.6-0.4c0.7,0,1.4-0.8,2.1-0.6c0.1,0.1,0.1,0.4,0,0.6C748.2,133.3,748,133.6,747.8,133.8z"/>
	<path class="st12" d="M722,182.3c0.4,0.5,0.9,0.8,0.2,1.5c-0.6,0.6-1.6,0.6-2.3,0c-1-0.9-1.1-2.5-0.3-3.5c0.3-0.4,1.1-1,1.6-0.7
		c0.6,0.4,0.3,1.5,0.4,2.1C721.8,181.9,721.9,182.1,722,182.3z"/>
	<path class="st12" d="M661.6,169.1c0.5-0.1,0.9-0.2,1.4-0.3c2.4-0.2,1.6,2.6,0.1,3.3c-1.7,0.8-4-0.1-5.5-0.8
		c-0.5-0.2-1-0.7-0.9-1.2c0.1-0.3,0.4-0.5,0.7-0.6c0.3-0.1,0.6,0,1,0C659.5,169.7,660.5,169.3,661.6,169.1z"/>
	<path class="st9" d="M750.8,102c-2,0-2-3.1,0-3.1C752.8,99,752.8,102,750.8,102z"/>
	<path class="st13" d="M692,173.2c-0.5-0.7-0.5-1.6,0.4-2.2c1.4-0.7,2.7,1.3,2.1,2.5c-0.3,0.6-1.1,0.7-1.7,0.4
		C692.6,173.8,692.2,173.5,692,173.2z"/>
	<path class="st13" d="M649,160.6c-0.2-0.1-0.2-0.1-0.4-0.1c-1.8,0.3-2.3-2.4-0.6-2.7c0.7-0.1,1.3-0.1,1.9,0.2
		C651.6,158.6,650.7,161.3,649,160.6z"/>
	<path class="st12" d="M678.3,171.6c-0.3,0.3-0.7,0.5-1,0.8c-0.6,0.4-1.5,0.1-1.8-0.5c-0.4-0.7-0.1-1.4,0.5-1.8
		c0.3-0.3,0.7-0.5,1-0.8c0.6-0.4,1.5-0.1,1.8,0.5C679.1,170.4,678.8,171.2,678.3,171.6z"/>
	<path class="st14" d="M724,201.8c-0.1,0.3-0.4,0.6-1,0.7c-0.9,0.2-1.3-1-0.9-1.7c0-0.1,0.1-0.1,0.1-0.2
		C723.1,199,724.5,200.7,724,201.8z"/>
	<path class="st9" d="M705.8,186.7c-0.2,0.2-0.2,0.5-0.3,0.8c-0.1,0.5-0.1,0.9-0.2,1.4c-0.4,0-0.9,0.1-1.1,0.4
		c-0.2,0.3-0.1,0.6,0,0.9c0.2,0.3,0.4,0.5,0.7,0.7c0.1,0.1,0.1,0.1,0.2,0.1c0.1,0,0.1-0.1,0.1-0.2c0.1-0.4,0.1-0.8,0.2-1.2
		c0-0.2,0.1-0.4,0.2-0.5c0.4-0.5,1.4,0.3,1.8,0.5c0.2,0.1,0.4,0.1,0.5,0.1c0.3-0.1,0.2-0.6,0.1-1c-0.2-0.5-0.5-1.1-0.9-1.5
		C706.9,186.8,706.3,186.2,705.8,186.7C705.8,186.7,705.8,186.7,705.8,186.7z"/>
	<path class="st9" d="M712.1,197.4c0,0.1,0,0.1,0,0.2c-0.1,0.4-0.5,1.7-1.2,0.8c-0.2-0.3-0.2-0.7-0.2-1.1c0.1-0.7,0.1-1.4,0.2-2.1
		c0-0.1,0-0.3,0.1-0.4c0.2-0.2,0.5-0.1,0.7,0.1C712.1,195.4,712.2,196.7,712.1,197.4z"/>
	<path class="st9" d="M678.3,189.1c-0.2,0.6-1,1.2-1.7,0.9c-0.3-0.1-0.6-0.2-0.8-0.3c-0.7-0.3-1.1-0.9-0.9-1.7
		c0.2-0.6,1-1.2,1.7-0.9c0.3,0.1,0.6,0.2,0.8,0.3C678,187.7,678.5,188.3,678.3,189.1z"/>
	<path class="st8" d="M718.7,197.5c-0.1,0.3-0.3,0.6-0.4,0.8c-0.3,0.8-0.8,2.9-1.8,1.4c-0.9-1.4-1.1-2.3-0.4-3.7
		c0.4-0.8,1.4-0.9,2.1-0.6C719.2,196,719,196.7,718.7,197.5z"/>
	<path class="st9" d="M748.1,149.9c-0.9,1.5-2.9,0.6-2.9-0.8c-0.1,0-0.1-0.1-0.2-0.1c-0.3-0.3-0.6-0.6-0.7-1.1
		c-0.4-1.8,2-2.6,2.8-1.3c0.1,0.1,0.2,0.2,0.3,0.2c0.3,0.2,0.6,0.5,0.8,0.9C748.6,148.3,748.5,149.1,748.1,149.9z"/>
	<path class="st9" d="M693.7,105.5c-0.8-0.4-1.5-1.4-2-2c-0.3-0.4-1.5-1.3-0.7-1.7c0.3-0.2,0.7-0.1,1,0.1c0.7,0.3,1.1,1,1.6,1.6
		c0.3,0.4,0.7,0.8,1.2,0.9c0.3,0.1,1-0.1,1,0.3c0.1,0.9-0.9,1.1-1.6,0.9C694,105.6,693.9,105.5,693.7,105.5z"/>
	<path class="st10" d="M698.3,182.8c0-0.4,0-0.8-0.3-1.3c-0.3-0.4-0.6-0.6-0.9-1c-0.2-0.4-0.3-0.9,0-1.2c0.3-0.3,0.8-0.3,1.2-0.2
		c0.6,0.1,1.2,0.2,1.8,0.3c0.4,0.1,0.8,0.2,1,0.5c0.2,0.2,0.2,0.6,0.2,0.8c0,1.4-0.6,2.6-1.1,3.9c-0.1,0.3-0.3,0.6-0.5,0.8
		c-0.5,0.4-1.5,0.1-1.6-0.6C697.8,184.1,698.2,183.4,698.3,182.8z"/>
	<path class="st12" d="M713,111.4c-0.3,0.4-0.7,0.7-1,0.9c-0.1,0.1-0.3,0.2-0.4,0.4c-0.1,0.1,0,0.3,0,0.4c0,0.4-0.4,0.8-0.7,0.7
		c-1.3-0.1-1-2.2-0.3-2.8c0.3-0.3,0.4-0.4,0.6-0.8c0.4-0.8,1.2-0.8,2-0.2C713.5,110.5,713.3,111.1,713,111.4z"/>
	<path class="st10" d="M680.1,122.4c-0.3,0.8-1.1,1.4-2,1.1c-0.8-0.2-1.2-0.9-0.9-1.7c0.2-0.5,0.6-1,0.6-1.5
		c0.1-0.7-0.2-2.1,0.9-2.1c0.9,0,1.6,1.1,1.7,1.9C680.5,120.8,680.4,121.6,680.1,122.4z"/>
	<path class="st15" d="M685.2,97c-0.5-0.3-1.2-0.7-1.4-1.1c-0.1-0.2-0.2-0.5-0.3-0.7c-0.3-0.5-1-0.7-1.6-0.9
		c-3.4-0.7-6.9,0.3-10.3-0.6c-0.3-0.1-0.6-0.2-1-0.1c-1,0.4-0.5,1.5-0.4,2.2c0.1,0.9-0.5,2.1,0.3,2.8c0.9,0.8,2.1,0,3-0.3
		c1.8-0.6,3.7,0,5.4,0.4c1.8,0.5,3.6,0.6,5.3,1.2c0.2,0.1,0.4,0.1,0.6,0.2c0.5,0.1,1.1-0.2,1.4-0.7c0.4-0.5,0.4-1.3,0-1.8
		C685.8,97.4,685.5,97.2,685.2,97z"/>
	<path class="st10" d="M730.4,151.3c-0.9-0.3-1.6-0.8-2.5-0.9c-1-0.1-2,0.3-3,0.7s-2.2,0.4-3-0.3c-0.6-0.6-0.7-1.6-0.1-2.3
		c0.8-1,2.3-0.8,3.5-0.7c1.7,0.2,3.5,0,5.2-0.5c0.7-0.2,1.4-0.5,2.1-0.6c0.7-0.1,1.5,0,2.1,0.5c0.9,0.7,1,2.3,0.2,3.2
		C734,151.4,731.7,151.7,730.4,151.3z"/>
	<path class="st9" d="M750,166.2c0.2-0.1,0.3-0.2,0.5-0.4c0.5-0.4,1-0.9,1.2-1.5c0.3-0.5,0.3-1.2-0.1-1.6c-0.2-0.2-0.5-0.2-0.8-0.3
		c-0.6,0-1.2,0-1.3,0.7c-0.1,0.3-0.1,0.6-0.3,0.8c0,0-0.1,0.1-0.1,0.1c-0.1,0-0.2,0-0.2-0.1c-0.9-0.5-2.6,0.3-2.5,1.5
		c0.1,0.5,0.5,0.9,0.7,1.4c0.2,1-0.9,1.9-0.5,2.9c0.2,0.4,0.6,0.7,1,0.9c0.2,0.1,0.3,0.2,0.5,0.1c0.4,0,0.6-0.4,0.7-0.8
		c0.2-0.8,0.1-1.8,0.3-2.6C749.2,166.8,749.6,166.5,750,166.2z"/>
	<path class="st8" d="M743.4,190.1c-0.2-1.6,0.4-4.1-1-5.3c-0.4-0.4-0.9-0.6-1.2-1.1c-0.2-0.3-0.3-0.7-0.5-1
		c-0.2-0.3-0.5-0.6-0.9-0.5c-0.2,0-0.3,0.2-0.5,0.3c-1,1-1,2.4-1.7,3.6c-0.3,0.4-3.7,5.9-1,4.8c1.2-0.5,1.5-2.2,2.5-3
		c0.2-0.1,0.4-0.3,0.6-0.2c0.1,0.1,0.2,0.2,0.2,0.3c0.3,0.5,0.3,1.1,0.5,1.7C740.9,191.1,743.6,192.5,743.4,190.1z"/>
	<path class="st12" d="M762.7,191.3c2.8,0.2,5.6,0,8.4-0.5c1.2-0.2,2.5-0.6,3.3-1.6c0.8-1,0.7-2.6-0.1-3.5c-0.2-0.2-0.3-0.3-0.6-0.4
		c-0.2,0-0.4,0-0.6,0.1c-0.9,0.4-1.6,1.2-2.5,1.7c-2.2,1.4-5,0.8-7.6,0.7c-1.4-0.1-10.9,0.1-10.2,2.7c0.3,1.3,2.5,1.1,3.4,1
		C758.5,191,760.5,191.1,762.7,191.3z"/>
	<path class="st8" d="M767.7,156.9c0.7-0.1,1.4-0.2,2-0.5c0.6-0.4,1-1.1,0.9-1.8c-0.2-0.7-1-1.1-1.7-1.3c-1.9-0.5-4-0.2-6-0.2
		c-1.8,0.1-3.5-0.1-5.3-0.4c-1.1-0.2-2.5-0.4-3.2,0.5c-0.4,0.5-0.5,1.2-0.5,1.8c0.3,2.5,2.5,3.1,4.6,2.8
		C761.5,157.3,764.6,157.3,767.7,156.9z"/>
	<path class="st11" d="M749.4,111.2c0.6-0.2,1.4,0.3,2.1,0.3c1.9,0.2,3.7,0.4,5.6,0.7c0.8,0.1,1.8,0.1,2.2-0.6
		c0.2-0.5,0.1-1-0.3-1.4c-0.3-0.4-0.8-0.6-1.3-0.7c-1.6-0.4-3.3-0.1-4.9-0.1c-0.3,0-0.6,0-0.9-0.2c-1.4-0.8-0.8-3.1-2.4-3.7
		c-0.4-0.1-0.8-0.1-1.1,0.2c-0.1,0.2-0.2,0.4-0.3,0.6c-0.3,1.2-0.3,2.4-0.6,3.6c-0.3,0.9-0.7,1.7-0.9,2.5c-0.2,0.9-0.1,1.9,0.6,2.5
		c0.2,0.2,0.5,0.3,0.8,0.2c0.2-0.1,0.3-0.3,0.4-0.5c0.3-0.7,0.2-2.6,0.6-3.1C748.9,111.3,749.1,111.2,749.4,111.2z"/>
	<path class="st11" d="M715.2,128.4c0,0.4,0,0.9,0.3,1.3c0.4,0.5,1,0.5,1.6,0.6c0.7,0.1,1.5,0.1,2-0.4
		C721.2,127.8,715.3,123.9,715.2,128.4z"/>
	<path class="st16" d="M720.3,107.5c-1.2-3.1-5.3,0.4-3.2,2.8C719.2,112.7,721.2,109.9,720.3,107.5z"/>
	<path class="st15" d="M732.2,101.3c0.5-0.2,1-0.1,1.5,0.1c0.5,0.2,0.9,0.5,1.4,0.6c0.9,0.2,1.8,0.1,2.3-0.7
		c0.2-0.3,0.3-0.6,0.5-0.8c0.2-0.2,0.7-0.2,0.8,0.1c0,0.1,0,0.2,0,0.3c-0.1,3.2-3.7,4.7-6.3,3.2
		C731.7,103.4,730.9,101.9,732.2,101.3z"/>
	<path class="st15" d="M655,112.1c0.5-1.1,2.7-1.4,3.8-1.8c0.9-0.3,2.3,0.2,1.8,1.4c-0.8,1.8-3.3,1.7-4.9,1.7c-0.2,0-0.5,0-0.6-0.1
		C654.8,113,654.8,112.4,655,112.1z"/>
	<path class="st8" d="M705.1,161.2c0.4,0.2,1,0,1.4-0.1c0.3-0.1,0.7-0.3,1-0.4c1.6-0.7,1.7-3-0.3-3.1
		C705.8,157.5,703.4,160.1,705.1,161.2z"/>
	<path class="st8" d="M696.7,148.8c0.2-1-0.1-2-0.8-2.7c-0.7-0.7-1.8-0.9-2.7-0.6c-0.2,0.1-0.4,0.2-0.5,0.4c0,0.1,0,0.2,0,0.3
		c0.2,0.8,0.8,1.4,0.9,2.2c0.2,0.9-0.3,1.9-0.7,2.7c-0.3,0.6-1.1,2.1-0.5,2.7c0.5,0.5,1-0.1,1.3-0.6c0.5-0.7,0.7-1.4,1.3-2
		C695.7,150.5,696.4,149.8,696.7,148.8z"/>
	<path class="st8" d="M722,138.4c-0.5-0.3-1.2-0.4-1.8-0.2c-0.6,0.2-1,0.9-0.9,1.5c0.1,0.4,0.4,0.8,0.7,1c0.6,0.5,2.3,1.2,3,0.6
		C724.1,140.5,722.8,138.9,722,138.4z"/>
	<path class="st11" d="M688,199.2c0.3,1,1.4,0.8,2.8-0.4c0.4-0.3,0.8-0.8,1.1-1.3c0.5-0.8,0.6-1.5,0.4-1.7s-0.7,0-1.2,0.3
		c-0.4,0.3-0.9,0.6-1.2,0.7c-0.3,0.1-0.5-0.1-0.9,0.2c-0.4,0.3-1,1.2-0.8,1.4c-0.3,0.3-0.2,0.1-0.3,0.5
		C687.8,199.3,687.9,199,688,199.2z"/>
	<path class="st8" d="M700.7,106c0,0,0.1,0,0.1,0c0.7,0,1.4,0.1,1.6,0.9c0,0.1,0,0.1,0.1,0.2c0,0.1,0.1,0.1,0.2,0.1
		c1.2,0.3,1,3.4,1.2,3.4c-0.8-0.2-1.1-2-1.4-2c-0.5-0.1-0.9,0.1-1.4,0.3C699.8,109.4,699.7,106.2,700.7,106z"/>
	<path class="st8" d="M711.1,175.5C711.1,175.5,711.1,175.5,711.1,175.5c1,1.9,2.4,3.6,4.6,3.5c1.3-0.1,2.6-1.4,1.1-2.4
		c-0.6-0.4-1.4-0.4-2.1-0.9c-0.6-0.4-3.2-1.8-3.7-0.9C711,175.1,711,175.3,711.1,175.5z"/>
	<path class="st9" d="M675.2,201.5c0.6-0.7,0.6-1.9-0.1-2.5c-0.1-0.1-0.3-0.2-0.5-0.3c-0.3-0.1-0.6,0-0.8,0.1
		c-1.2,0.5-2.1,1.7-3.4,1.8c-0.7,0-1.5-0.3-2.2-0.3c-1.3-0.1-2.6,1-2.8,2.4c0,0.1,0,0.2,0,0.3c0,0.1,0.2,0.2,0.3,0.3
		c0.8,0.5,1.8,0.5,2.7,0.2c0.7-0.3,1.2-0.8,1.9-1.1C671.9,201.6,673.8,203.2,675.2,201.5z"/>
	<path class="st9" d="M773.7,123.1c0.3,0,0.6,0.1,0.8-0.1c0.5-0.3,0.4-1.1,0.1-1.7c-0.3-0.8-0.7-1.6-1-2.4c-0.1-0.2-0.2-0.4-0.4-0.5
		c-0.2-0.1-0.4-0.1-0.7-0.1c-2,0.3-4,0.7-6.1,0.5c-0.8-0.1-1.7-0.3-2.5,0c-1.5,0.5-2.3,2.4-3.9,2.7c-1.7,0.3-0.8,1.4,0.5,1.5
		c1,0.1,2.3-0.4,3.3-0.4C767.2,122.5,770.4,122.7,773.7,123.1z"/>
	<path class="st8" d="M775.7,153.5c-0.6,0.3-1.1,0.5-1.7,0.8c-0.2,0.1-0.4,0.2-0.5,0.4c-0.1,0.2,0,0.3,0,0.5c0.2,0.5,0.4,1,0.8,1.4
		c0.1,0.1,0.2,0.3,0.4,0.3c0.2,0,0.4,0,0.6-0.1c0.6-0.3,1.2-0.6,1.6-1.2c0.4-0.6,0.3-1.4-0.3-1.8
		C776.3,153.6,776.1,153.5,775.7,153.5z"/>
	<path class="st10" d="M651.7,194.9c-5.2,0.4-11.5,0-14.9-4.6c-0.4-0.5-0.7-1.1-0.8-1.7c-0.1-0.6,0-1.3,0.5-1.7c0.9,0,1.3,1,1.9,1.8
		c1.9,2.5,7,1.4,9.5,1.3c4.2-0.1,8.5-0.2,12.7-0.4c1.7,0,3.7,0.1,4.4,1.6c1.2,2.5-2,3.5-3.7,3.4C658,194.4,654.9,194.7,651.7,194.9z
		"/>
	<path class="st17" d="M643.7,95.5c-0.4-0.1-0.8-0.3-1-0.4c-0.2-0.1-0.4-0.2-0.5-0.4c-0.7-1.3,6.3-1.9,6.4,0.3
		C648.7,97,645.5,96.2,643.7,95.5z"/>
	<path class="st13" d="M648.6,126.9c-2.2,0-4.4-0.1-6.5-0.7c0.6-0.9,1.8-1.1,2.9-1.1c3.1-0.2,6.3-0.4,9.4-0.6
		c2.9-0.2,6.6-0.9,9.5-0.4c1.9,0.3,2.5,2.6,0.5,3.3c-1.6,0.6-4-0.3-5.6-0.4C655.5,126.9,652,127,648.6,126.9z"/>
</g>
<linearGradient id="SVGID_7_" gradientUnits="userSpaceOnUse" x1="375.0107" y1="296.0987" x2="375.0107" y2="3.0446">
	<stop  offset="0" style="stop-color:#D0FAFE;stop-opacity:0.4"/>
	<stop  offset="0.3333" style="stop-color:#E6FAFE"/>
	<stop  offset="0.67" style="stop-color:#E6FAFE"/>
	<stop  offset="1" style="stop-color:#D0FAFE;stop-opacity:0.5"/>
</linearGradient>
<path class="st18" d="M747.3,104.4c-1.3-9.4-2.8-16-4.1-20.4c-0.7-2.5-3.5-4.8-6.8-4.8l0,0h0l0,0c-0.4,0-0.8,0-1.1,0
	c-0.1,0-0.2,0-0.3,0c-0.3,0-0.6,0.1-0.8,0.1c-0.1,0-0.1,0-0.2,0c-0.3,0.1-0.6,0.1-0.8,0.2c0,0-0.1,0-0.1,0c-0.2,0.1-0.5,0.2-0.7,0.3
	c0,0,0,0,0,0c-1.2,0.6-1.9,1.4-2.4,2.3c-0.6,0.9-0.9,1.7-1.8,1.7h-25l0,0c-0.7-2.5-3-4.8-6.8-4.8c-5,0-6.4,2.3-7.1,4.8l0,0H579.1
	C536.2,83.8,551,0,463.9,0H34.1C6.4,0,0,73.2,0,150.2s6.4,150.2,34.1,150.2h429.8c80.9,0,67-84,115.4-84c0,0,0.1,0,0.1,0h109.8
	c0.7,2.5,2.6,4.8,7.2,4.8c4.7,0,6-2.3,6.8-4.8l0,0h25c0.8,0,1.1,0.6,1.6,1.3c0.2,0.4,0.4,0.7,0.7,1c0.8,1.1,2.1,2.2,5,2.4
	c0.3,0,0.6,0,1,0l0,0h0l0,0c4.7,0,7.3-4.4,8.1-6.9c2.8-9.5,5.5-27.3,5.5-64C750,128.8,748.9,114.3,747.3,104.4z"/>
<g>
	<g>
		<path class="st19" d="M736.4,221c1.6-0.1,3.1-0.6,4.4-1.5c1.2-0.9,2-2.3,2.6-3.7c1.2-2.9,1.9-5.9,2.5-9c1.2-6.2,1.8-12.4,2.3-18.7
			c0.9-12.5,1.2-25.1,1.2-37.7c-0.1-12.6-0.6-25.2-1.8-37.6c-0.3-3.1-0.7-6.2-1.1-9.3c-0.4-3.1-0.9-6.2-1.5-9.2
			c-0.6-3-1.4-6.1-2.6-8.8c-0.3-0.7-0.6-1.4-0.9-2c-0.2-0.3-0.4-0.6-0.5-0.9c-0.2-0.3-0.5-0.6-0.7-0.9c-1-1.1-2.1-2.1-3.7-2.4
			c1.6-0.4,3.4,0.4,4.7,1.4c0.3,0.3,0.6,0.5,1,0.8c0.3,0.3,0.6,0.6,0.9,1c0.3,0.3,0.5,0.7,0.7,1.1c0.2,0.4,0.4,0.7,0.6,1.1
			c1.4,3,2.1,6.1,2.8,9.2c0.7,3.1,1.2,6.2,1.6,9.4c0.4,3.1,0.7,6.3,1,9.4c0.5,6.3,0.8,12.6,0.9,18.9c0.2,6.3,0.2,12.6,0.1,18.9
			c-0.1,12.6-0.3,25.2-1.4,37.8c-0.6,6.3-1.2,12.6-2.5,18.8c-0.7,3.1-1.5,6.2-2.8,9.1c-0.3,0.7-0.7,1.4-1.2,2.1
			c-0.5,0.7-1,1.3-1.7,1.7C739.6,220.7,738,221.1,736.4,221z"/>
	</g>
	<g>
		<path class="st20" d="M734.1,201.5c0,1.4-0.1,2.8-0.2,4.3c-0.1,1.4-0.3,2.8-0.5,4.3c-0.2,1.4-0.5,2.8-1.1,4.2
			c-0.3,0.7-0.6,1.3-1.2,1.9c-0.3,0.3-0.7,0.4-1,0.5c-0.4,0-0.8-0.1-1.1-0.3c0.3,0.1,0.7,0.1,1,0c0.3-0.1,0.6-0.3,0.8-0.5
			c0.4-0.5,0.7-1.2,0.9-1.8c0.4-1.3,0.7-2.7,0.9-4.1l0.7-4.2C733.5,204.3,733.8,202.9,734.1,201.5z"/>
	</g>
	<g>
		<path class="st20" d="M729.3,84.1c0.8-0.3,1.8-0.1,2.6,0.4c0.8,0.5,1.3,1.2,1.8,2c1,1.5,1.6,3.2,2.1,4.8c1,3.4,1.5,6.8,2,10.2
			c0.4,3.4,0.7,6.9,0.8,10.4c0.2,3.5,0.2,6.9,0.1,10.4c-0.2-3.5-0.4-6.9-0.7-10.3c-0.3-3.4-0.7-6.9-1.1-10.3
			c-0.5-3.4-1.1-6.8-2-10.1c-0.5-1.6-1-3.2-1.8-4.7c-0.4-0.7-0.9-1.4-1.5-2C731,84.3,730.2,84,729.3,84.1z"/>
	</g>
	<path class="st21" d="M732.3,218.1c0.5,1.4,5.1,3,4.8-0.6c-0.2-2.1,0.6-7.7,1-11.3s0.2-10.5-0.7-4.9c-0.8,5.6-1.1,10.9-2.4,13.6
		S733.1,218.1,732.3,218.1z"/>
	<path class="st21" d="M697.2,82.4c1.4,0,2.7-0.1,3.1-0.2c2.7-0.6-2-2.4-3-2.4c-0.8,0-3.5,0.4-3.7,1.3
		C693.3,82.1,695.3,82.3,697.2,82.4z"/>
	<path class="st21" d="M706.9,103.8c-0.5-4.1-1.5-8.2-2.5-12.1c-0.4-1.7-1-3.3-1.5-5c-0.3-1.1-1.1-3.2-1.9-3.1
		c-2.5,0.1-4.3,0.2-3.5,2.5c1,2.6,1.7,4.7,2.5,9.4c0.5,3.2,1.5,9.9,2.4,10c0.9,0.1-0.4-5.6,0.5-5.6c1.4-0.1,2.3,15.3,3.1,16.1
		c1.7,1.7,1.3-4,1.3-4.8C707.1,108.3,707.2,106.3,706.9,103.8z"/>
	<g>
		<path class="st19" d="M708.2,108.7c-0.5-2.8-1-5.5-1.5-8.3c-0.5-2.8-1.1-5.5-1.8-8.2c-0.7-2.7-1.5-5.4-2.7-7.8
			c-0.3-0.6-0.6-1.2-1-1.6c-0.4-0.5-0.9-1-1.3-1.4c-0.9-0.9-1.9-1.7-3.3-2.2c0.7-0.2,1.5-0.2,2.3,0c0.7,0.2,1.4,0.6,2.1,1
			c0.6,0.5,1.1,0.9,1.6,1.6c0.5,0.6,0.9,1.3,1.2,1.9c1.3,2.6,2,5.4,2.6,8.2c0.6,2.8,1,5.6,1.3,8.4
			C707.8,103.1,708.1,105.9,708.2,108.7z"/>
	</g>
	<g>
		<path class="st19" d="M696.4,221c0.9,0,1.9-0.2,2.7-0.5c0.9-0.3,1.8-0.7,2.3-1.4c1.1-1.4,1.7-3.2,2.3-4.9
			c1.1-3.5,1.8-7.2,2.4-10.8c0.7-3.7,1.2-7.4,1.7-11.1c0.5-3.7,0.9-7.4,1.3-11.1c0,3.7-0.2,7.5-0.5,11.2c-0.3,3.7-0.7,7.5-1.2,11.2
			c-0.6,3.7-1.3,7.4-2.7,11c-0.7,1.7-1.4,3.6-2.9,4.9c-0.2,0.2-0.4,0.3-0.6,0.4c-0.2,0.1-0.5,0.2-0.7,0.3c-0.4,0.2-0.9,0.3-1.3,0.5
			C698.3,221,697.3,221.1,696.4,221z"/>
	</g>
	<path class="st21" d="M692.5,215.5c-0.7,0.9,0.6,2.3,2.1,0.6c1.5-1.7,2.2-6.3,2.9-11.6c0.7-5.4,0.5-13.7-0.1-13.7
		c-0.6,0-2.7,15.8-3.1,18.7C693.9,212.4,693.7,214,692.5,215.5z"/>
	<g>
		<path class="st20" d="M693,209.4c0,0.8,0,1.5-0.2,2.3c-0.1,0.8-0.3,1.5-0.5,2.2c-0.2,0.7-0.6,1.5-1.2,2.1
			c-0.3,0.3-0.7,0.5-1.1,0.6c-0.4,0-0.8-0.1-1.1-0.3c0.4,0,0.8,0.1,1.1-0.1c0.3-0.1,0.5-0.3,0.7-0.6c0.4-0.5,0.7-1.2,0.9-1.9
			C692.1,212.3,692.5,210.9,693,209.4z"/>
	</g>
	<g>
		<path class="st20" d="M689.3,84.1c0.9-0.4,2-0.1,2.8,0.5c0.8,0.6,1.4,1.4,1.9,2.2c0.9,1.7,1.5,3.5,2,5.3c0.5,1.8,0.8,3.7,1,5.5
			c0.3,1.8,0.4,3.7,0.5,5.6c-0.2-0.9-0.4-1.8-0.5-2.7c-0.2-0.9-0.4-1.8-0.6-2.7c-0.4-1.8-0.8-3.6-1.3-5.4c-0.5-1.8-1.1-3.5-2-5.1
			c-0.2-0.4-0.5-0.7-0.7-1.1c-0.3-0.3-0.5-0.7-0.8-1C691.1,84.5,690.3,84.1,689.3,84.1z"/>
	</g>
	<path class="st21" d="M740,84.6c-1.2-2.8-3.6-4.7-5.3-3.9c-1,0.5,1.8,2,3.6,5.5c6.1,12.4,6.2,27.9,6.9,27.9S745.4,97.3,740,84.6z"
		/>
</g>
<linearGradient id="SVGID_8_" gradientUnits="userSpaceOnUse" x1="354.0901" y1="58.5385" x2="672.1379" y2="58.5385">
	<stop  offset="0" style="stop-color:#D0FAFE;stop-opacity:0.2"/>
	<stop  offset="0.3333" style="stop-color:#E6FAFE"/>
	<stop  offset="0.67" style="stop-color:#E6FAFE"/>
	<stop  offset="1" style="stop-color:#D0FAFE;stop-opacity:0.2"/>
</linearGradient>
<path class="st22" d="M393.5,3.9c6.9,0,72.5,0,72.5,0c80.9,0,64.6,84.2,113,84.2c0,0-17.2,2.6-40.6-15.5c0,0-3.1,32.9,70.4,32.9
	s88.2,0,88.2,0s-82.3,11.4-128.3,6.4c-36.4-3.9-45.5-16.1-55.1-49.8c-6-21-26.4-27.3-51-30.2c-44.2-5.3-110.1-3-155.6-4.1
	c50.7-6.3,139.6-3.6,139.6-10S403.8,7.2,393.5,3.9z"/>
<linearGradient id="SVGID_9_" gradientUnits="userSpaceOnUse" x1="24.8405" y1="35.0612" x2="43.5397" y2="158.6837">
	<stop  offset="0" style="stop-color:#E6FAFE"/>
	<stop  offset="0.5084" style="stop-color:#D0FAFE;stop-opacity:0.2"/>
</linearGradient>
<path class="st23" d="M26.7,290.8c0,0-8.8-60.6-8.8-137.2c0-16.7,0.4-33.5,1.5-50.2c1.5-23.4,4-47,10-69.8
	c2.7-10.4,6.1-19.7,16.4-24.7c4.3-2.1,9.1-3,13.8-3.9c2.3-0.4,4.6-0.9,6.8-1.3C58.6,3.3,50.9,3,43.1,3c-7,0-13.8-0.3-18.6,5.2
	c-3.6,4.1-5.9,9.3-7.6,14.4c-3.5,10.2-4.8,21-6.6,31.6c-5,29.1-6.5,58.9-6.6,88.4C3.4,225.7,13.1,277.5,26.7,290.8z"/>
<linearGradient id="SVGID_10_" gradientUnits="userSpaceOnUse" x1="50.8613" y1="150.6933" x2="25.907" y2="150.6933">
	<stop  offset="0" style="stop-color:#E6FAFE;stop-opacity:0.6"/>
	<stop  offset="0.9457" style="stop-color:#D0FAFE;stop-opacity:0"/>
</linearGradient>
<path class="st24" d="M51.8,191.6c-1.4,38.6-9.6,65-12.4,74.9c-5,17.7-12.3-3.2-13.4-12.3c-4.4-33.8-4.9-68.7-5-103
	c-0.1-20.8,1.7-41,2.5-61.5c0.8-21,3.3-58.6,11.7-61.4c6.6-2.2,10.2,20.2,10.5,22.1C54.6,96.6,53.5,144.3,51.8,191.6z"/>
<linearGradient id="SVGID_11_" gradientUnits="userSpaceOnUse" x1="526.5599" y1="272.6496" x2="446.9135" y2="272.6496">
	<stop  offset="0" style="stop-color:#E6FAFE;stop-opacity:0.6"/>
	<stop  offset="0.9457" style="stop-color:#D0FAFE;stop-opacity:0"/>
</linearGradient>
<path class="st25" d="M431.2,295.8c28.5,0,63,2,78.2-14.6c15.2-16.6,21.2-27.2,23.9-31.8C507.9,279,497.5,291.3,431.2,295.8z"/>
<linearGradient id="SVGID_12_" gradientUnits="userSpaceOnUse" x1="412.6536" y1="290.6856" x2="115.5203" y2="290.6856">
	<stop  offset="0" style="stop-color:#D0FAFE;stop-opacity:0.2"/>
	<stop  offset="0.3333" style="stop-color:#E6FAFE"/>
	<stop  offset="0.67" style="stop-color:#E6FAFE"/>
	<stop  offset="1" style="stop-color:#D0FAFE;stop-opacity:0.2"/>
</linearGradient>
<path class="st26" d="M373.4,290.5c21.5,0.8,43,1.7,64.5,2.6c-41.5,1.7-82.8,2.8-124.3,2.8c-75.5,0-150.9,2.1-226.4,1
	c-9.5-0.1-30.2,2.3-30.2-5.8c0-8.1,20.2-6.5,20.7-6.5c23.4-1.4,47.7,0.8,71.3,1c24.9,0.2,49.9,0.5,74.8,1
	C273.6,287.4,323.5,288.6,373.4,290.5z"/>
</svg>
